<?xml version="1.0" encoding="UTF-8"?>
<svg version="1.1" xmlns="http://www.w3.org/2000/svg" width="626" height="626">
<path d="M0 0 C49.55487808 -0.63713415 94.35668064 2.95230221 131.71875 38.7109375 C135.36574827 42.29756879 138.60372085 46.13138703 141.75390625 50.16015625 C143.79603454 52.74211672 145.91175217 55.21550733 148.08300781 57.68725586 C157.1725265 68.0562068 165.37200089 79.12128458 173.61621094 90.16503906 C176.84968798 94.49369249 180.14587577 98.76428542 183.5 103 C187.4051095 107.94890512 191.24970683 112.93203626 195 118 C195.84691406 116.93265625 195.84691406 116.93265625 196.7109375 115.84375 C198.97738042 113.02810078 201.29471246 110.26294679 203.625 107.5 C210.00936338 99.87285175 216.03644903 91.98033171 221.98046875 84.0078125 C223.00772175 82.63014066 224.03506609 81.25253692 225.0625 79.875 C225.57208252 79.19155518 226.08166504 78.50811035 226.60668945 77.80395508 C229.50425832 73.93633662 232.47053301 70.15338176 235.5625 66.4375 C239.069447 62.21899853 242.34065236 57.87394399 245.5625 53.4375 C249.88869561 47.49148763 254.26369748 41.6299445 259 36 C259.80695313 35.02289063 260.61390625 34.04578125 261.4453125 33.0390625 C280.50083598 10.65262361 310.12790866 3.5386976 338.38543701 1.17706299 C355.8690025 -0.00695605 373.48297378 0.11362972 391 0 C391 4.90658704 390.16993889 5.26222337 386.8125 8.625 C382.23131955 13.38650262 378.36566694 18.47752196 374.5625 23.875 C369.0814983 31.6240024 363.21335919 38.83513098 357 46 C352.19978261 51.73292294 347.5401725 57.56030408 343 63.5 C337.62046298 70.53779738 332.06934911 77.42157133 326.30859375 84.15234375 C321.89675252 89.31003296 317.58657196 94.46534428 313.5625 99.9375 C309.79175515 105.05253892 305.75632196 109.84833061 301.59106445 114.6394043 C296.59527591 120.41000447 291.90402511 126.39780671 287.22558594 132.42626953 C280.00920431 141.69256354 272.58815606 150.81342289 264.95776367 159.74145508 C260.35818338 165.12654549 255.91362374 170.58928989 251.65332031 176.24755859 C249.624391 178.93290621 247.55366336 181.55238891 245.33984375 184.0859375 C244.50582031 185.04757812 243.67179688 186.00921875 242.8125 187 C242.05582031 187.845625 241.29914063 188.69125 240.51953125 189.5625 C238.75661896 191.87370181 238.75661896 191.87370181 239.125 194.484375 C240.04482277 197.12886545 241.07794812 199.67899952 242.1875 202.25 C249.36087455 220.71364232 252.18944895 240.38329254 254 260 C254.07057617 260.71269043 254.14115234 261.42538086 254.21386719 262.15966797 C257.26007021 293.5001007 255.34982111 327.4539053 245.5625 357.5 C245.28639893 358.35424561 245.01029785 359.20849121 244.72583008 360.08862305 C242.84986143 365.49913509 240.41014112 372.29492944 235 375 C232.46714949 375.09292928 229.96206407 375.12581684 227.42919922 375.11352539 C226.25833267 375.11374443 226.25833267 375.11374443 225.06381226 375.1139679 C222.47740931 375.11326986 219.89107791 375.10548257 217.3046875 375.09765625 C215.51392659 375.09579168 213.72316517 375.09436796 211.93240356 375.09336853 C207.21415809 375.08954641 202.4959433 375.07971871 197.77770996 375.06866455 C192.96509211 375.05844389 188.15246932 375.0538695 183.33984375 375.04882812 C173.89321567 375.03809619 164.44661038 375.0210234 155 375 C153.81962783 370.15042505 154.70670805 366.78776559 156.1875 362.125 C171.88450427 309.13595167 168.31859239 245.32842446 143.25 195.625 C142.26770962 193.82547623 141.28318915 192.02688587 140.265625 190.24707031 C138.65966343 187.39574502 137.13061532 184.50632724 135.59375 181.6171875 C129.43556648 170.14893445 123.13856817 159.10166969 115.0234375 148.87890625 C111.47612317 144.40910312 108.28996195 139.70298703 105.0625 135 C99.26541825 126.6169573 93.05299663 118.70483291 86.54052734 110.87158203 C84.01868721 107.80780605 81.56999515 104.68771672 79.125 101.5625 C78.44014526 100.68887817 78.44014526 100.68887817 77.74145508 99.79760742 C75.86641667 97.40182081 73.99996044 94.99994843 72.1484375 92.5859375 C68.30525061 87.57704463 64.27724432 82.74300869 60.1875 77.93505859 C54.77594712 71.57167862 49.44022665 65.15008023 44.3125 58.5546875 C43.37500066 57.34895782 42.43750065 56.14322866 41.5 54.9375 C41.04133545 54.34686768 40.5826709 53.75623535 40.11010742 53.14770508 C36.47924187 48.51322742 32.62805732 44.17048445 28.58203125 39.890625 C27 38 27 38 27 36 C26.34 36 25.68 36 25 36 C23.66015625 34.5234375 23.66015625 34.5234375 22.0625 32.375 C21.44375 31.55773437 20.825 30.74046875 20.1875 29.8984375 C19.465625 28.94195312 18.74375 27.98546875 18 27 C16.1983514 24.65813315 14.38246475 22.32765067 12.5625 20 C12.09497314 19.39865234 11.62744629 18.79730469 11.14575195 18.17773438 C7.74694303 13.84329496 4.14030891 9.78763539 0.265625 5.8671875 C-1 4 -1 4 -0.703125 1.7578125 C-0.47109375 1.17773438 -0.2390625 0.59765625 0 0 Z " fill="#DC8D9A" transform="translate(118,126)"/>
<path d="M0 0 C49.55487808 -0.63713415 94.35668064 2.95230221 131.71875 38.7109375 C135.36574827 42.29756879 138.60372085 46.13138703 141.75390625 50.16015625 C143.79603454 52.74211672 145.91175217 55.21550733 148.08300781 57.68725586 C157.17010867 68.05344863 165.36769872 79.11535191 173.60961914 90.15625 C176.90744177 94.57110285 180.26906744 98.9279538 183.6875 103.25 C194 116.30593452 194 116.30593452 194 123 C193.02880859 124.7097168 193.02880859 124.7097168 191.6484375 126.44921875 C190.87608765 127.45505005 190.87608765 127.45505005 190.08813477 128.48120117 C189.52280029 129.20927979 188.95746582 129.9373584 188.375 130.6875 C168.8714484 156.76009751 155.47386237 186.13118265 155 219 C152.64046906 216.64046906 152.50858587 215.22104383 152 212 C151.34 212 150.68 212 150 212 C149.505 210.865625 149.01 209.73125 148.5 208.5625 C147.66879118 206.70737996 146.83508991 204.85337619 146 203 C145.47535156 201.82050781 144.95070313 200.64101563 144.41015625 199.42578125 C136.20609043 181.29012316 126.37262503 164.10001401 114.54003906 148.09326172 C112.91096926 145.87898707 111.30860962 143.64717867 109.7109375 141.41015625 C100.77433169 128.90911091 91.48469324 116.76300781 81.74829102 104.875 C78.54099126 100.94502846 75.44264508 96.96352166 72.4375 92.875 C68.19142874 87.1330651 63.58369266 81.76352127 58.91015625 76.37109375 C53.88204405 70.56690692 49.02994486 64.62076996 44.31640625 58.55859375 C43.37762679 57.35154491 42.43882453 56.14451379 41.5 54.9375 C41.04125488 54.34678711 40.58250977 53.75607422 40.10986328 53.14746094 C36.47915587 48.51300751 32.62797421 44.17039653 28.58203125 39.890625 C27 38 27 38 27 36 C26.34 36 25.68 36 25 36 C23.66015625 34.5234375 23.66015625 34.5234375 22.0625 32.375 C21.44375 31.55773437 20.825 30.74046875 20.1875 29.8984375 C19.465625 28.94195312 18.74375 27.98546875 18 27 C16.1983514 24.65813315 14.38246475 22.32765067 12.5625 20 C12.09497314 19.39865234 11.62744629 18.79730469 11.14575195 18.17773438 C7.74694303 13.84329496 4.14030891 9.78763539 0.265625 5.8671875 C-1 4 -1 4 -0.703125 1.7578125 C-0.47109375 1.17773438 -0.2390625 0.59765625 0 0 Z " fill="#3D2483" transform="translate(118,126)"/>
<path d="M0 0 C-0.33 2.64 -0.66 5.28 -1 8 C-0.34 8 0.32 8 1 8 C1.33 7.34 1.66 6.68 2 6 C2.495 7.98 2.495 7.98 3 10 C3.66 10 4.32 10 5 10 C6.37503457 14.65557391 7.70242598 19.32241574 9 24 C9.40992188 25.45792969 9.40992188 25.45792969 9.828125 26.9453125 C20.95419926 70.38434712 22.01668205 131.23876514 1.44000244 172.09767151 C-1 175 -1 175 -4.63201904 175.7215271 C-6.1123863 175.73887404 -7.5933666 175.72306136 -9.07324219 175.68115234 C-9.88337265 175.6820285 -10.69350311 175.68290466 -11.52818298 175.68380737 C-14.20206632 175.67963193 -16.87343087 175.63298569 -19.546875 175.5859375 C-21.40202463 175.57474512 -23.25719201 175.56620513 -25.11236572 175.56021118 C-29.99217808 175.53731603 -34.8709167 175.47838711 -39.75030518 175.4119873 C-44.73052443 175.35057943 -49.71091742 175.32319938 -54.69140625 175.29296875 C-64.46140894 175.22864436 -74.23061514 175.12625668 -84 175 C-83.591483 173.38177086 -83.591483 173.38177086 -83.17471313 171.73085022 C-82.81254361 170.29071489 -82.45043547 168.85056412 -82.08837891 167.41040039 C-81.90944595 166.70229469 -81.730513 165.994189 -81.54615784 165.26462555 C-79.97926317 159.02317303 -78.63779925 152.74734229 -77.375 146.4375 C-75.45977771 136.90381437 -72.97807824 127.77522751 -69.875 118.5625 C-69.59785156 117.73556641 -69.32070313 116.90863281 -69.03515625 116.05664062 C-68.35815094 114.0372972 -67.67926921 112.01858302 -67 110 C-66.34 110 -65.68 110 -65 110 C-64.855625 109.0925 -64.71125 108.185 -64.5625 107.25 C-64.13590527 104.78523044 -63.64925779 102.41152893 -63 100 C-62.34 100 -61.68 100 -61 100 C-60.9175 99.17757812 -60.835 98.35515625 -60.75 97.5078125 C-59.82565675 93.18458208 -58.05986523 89.7570537 -56 85.875 C-55.26715168 84.47848834 -54.53785774 83.08010445 -53.8125 81.6796875 C-53.48894531 81.06851074 -53.16539062 80.45733398 -52.83203125 79.82763672 C-51.95802768 77.90780375 -51.44943531 76.0570745 -51 74 C-50.34 74 -49.68 74 -49 74 C-48.34 72.02 -47.68 70.04 -47 68 C-46.34 68 -45.68 68 -45 68 C-44.855625 67.236875 -44.71125 66.47375 -44.5625 65.6875 C-44 63 -44 63 -43 60 C-42.34 60 -41.68 60 -41 60 C-41 58.68 -41 57.36 -41 56 C-40.34 56 -39.68 56 -39 56 C-39 54.68 -39 53.36 -39 52 C-38.34 52 -37.68 52 -37 52 C-36.34 50.02 -35.68 48.04 -35 46 C-34.34 46 -33.68 46 -33 46 C-33 44.68 -33 43.36 -33 42 C-32.34 42 -31.68 42 -31 42 C-30.566875 40.63875 -30.566875 40.63875 -30.125 39.25 C-29.23468224 36.67797092 -28.28505587 34.38653234 -27 32 C-26.34 32 -25.68 32 -25 32 C-24.71125 31.0925 -24.4225 30.185 -24.125 29.25 C-23.23468224 26.67797092 -22.28505587 24.38653234 -21 22 C-20.34 22 -19.68 22 -19 22 C-18.71125 21.0925 -18.4225 20.185 -18.125 19.25 C-17.23468224 16.67797092 -16.28505587 14.38653234 -15 12 C-14.34 12 -13.68 12 -13 12 C-12.34 10.02 -11.68 8.04 -11 6 C-10.34 6 -9.68 6 -9 6 C-8.71125 5.030625 -8.4225 4.06125 -8.125 3.0625 C-6.33156674 -1.81962388 -4.56933421 -1.08221073 0 0 Z " fill="#162A74" transform="translate(357,324)"/>
<path d="M0 0 C49.55487808 -0.63713415 94.35668064 2.95230221 131.71875 38.7109375 C135.36574827 42.29756879 138.60372085 46.13138703 141.75390625 50.16015625 C143.79603454 52.74211672 145.91175217 55.21550733 148.08300781 57.68725586 C157.17010867 68.05344863 165.36769872 79.11535191 173.60961914 90.15625 C176.90744177 94.57110285 180.26906744 98.9279538 183.6875 103.25 C194 116.30593452 194 116.30593452 194 123 C192.85424805 125.02709961 192.85424805 125.02709961 191.26171875 127.15234375 C190.68873047 127.92900391 190.11574219 128.70566406 189.52539062 129.50585938 C188.91888672 130.30830078 188.31238281 131.11074219 187.6875 131.9375 C186.50216321 133.52865091 185.31851881 135.12106423 184.13671875 136.71484375 C183.58097168 137.45943848 183.02522461 138.2040332 182.45263672 138.97119141 C180.87629284 141.1015813 180.87629284 141.1015813 179.30078125 143.95703125 C176.83992115 147.8219857 172.16514102 148.61161966 168 150 C168 149.34 168 148.68 168 148 C167.34 147.67 166.68 147.34 166 147 C166 146.01 166 145.02 166 144 C165.34 144 164.68 144 164 144 C163.34 142.02 162.68 140.04 162 138 C161.34 138 160.68 138 160 138 C160 136.68 160 135.36 160 134 C159.34 134 158.68 134 158 134 C158 133.34 158 132.68 158 132 C156.68 131.34 155.36 130.68 154 130 C154 128.02 154 126.04 154 124 C153.34 124 152.68 124 152 124 C152 123.34 152 122.68 152 122 C151.34 122 150.68 122 150 122 C150 120.68 150 119.36 150 118 C149.34 118 148.68 118 148 118 C148 116.68 148 115.36 148 114 C147.34 114 146.68 114 146 114 C146 113.34 146 112.68 146 112 C145.34 112 144.68 112 144 112 C144 111.34 144 110.68 144 110 C143.34 110 142.68 110 142 110 C142 109.34 142 108.68 142 108 C141.34 108 140.68 108 140 108 C140 107.34 140 106.68 140 106 C139.34 106 138.68 106 138 106 C138 104.68 138 103.36 138 102 C136.02 102 134.04 102 132 102 C132 100.68 132 99.36 132 98 C132.66 97.67 133.32 97.34 134 97 C133.34 96.67 132.68 96.34 132 96 C132 94.68 132 93.36 132 92 C131.34 92 130.68 92 130 92 C130 91.34 130 90.68 130 90 C128.68 90 127.36 90 126 90 C126 89.34 126 88.68 126 88 C125.34 88 124.68 88 124 88 C124 87.34 124 86.68 124 86 C123.34 86 122.68 86 122 86 C122 84.68 122 83.36 122 82 C121.34 82 120.68 82 120 82 C120 81.34 120 80.68 120 80 C119.34 80 118.68 80 118 80 C118 79.34 118 78.68 118 78 C117.34 78 116.68 78 116 78 C116 77.34 116 76.68 116 76 C115.34 76 114.68 76 114 76 C114 75.34 114 74.68 114 74 C113.34 74 112.68 74 112 74 C112 73.34 112 72.68 112 72 C110.68 72 109.36 72 108 72 C108 71.34 108 70.68 108 70 C107.34 70 106.68 70 106 70 C106 68.68 106 67.36 106 66 C104.68 66 103.36 66 102 66 C102 65.34 102 64.68 102 64 C101.34 64 100.68 64 100 64 C100 63.34 100 62.68 100 62 C99.34 62 98.68 62 98 62 C98 61.34 98 60.68 98 60 C97.34 60 96.68 60 96 60 C96 59.34 96 58.68 96 58 C94.68 58 93.36 58 92 58 C92 57.34 92 56.68 92 56 C91.34 56 90.68 56 90 56 C90 55.34 90 54.68 90 54 C89.34 54 88.68 54 88 54 C88 53.34 88 52.68 88 52 C87.34 52 86.68 52 86 52 C86 51.34 86 50.68 86 50 C85.34 50 84.68 50 84 50 C84 49.34 84 48.68 84 48 C83.4225 47.71125 82.845 47.4225 82.25 47.125 C80.16666667 46.08333333 78.08333333 45.04166667 76 44 C76 43.34 76 42.68 76 42 C74.02 41.34 72.04 40.68 70 40 C70 39.34 70 38.68 70 38 C69.34 38 68.68 38 68 38 C68 37.34 68 36.68 68 36 C67.34 36 66.68 36 66 36 C66 35.34 66 34.68 66 34 C64.68 34 63.36 34 62 34 C62 33.34 62 32.68 62 32 C60.02 31.34 58.04 30.68 56 30 C56 29.34 56 28.68 56 28 C54.02 28.66 52.04 29.32 50 30 C50 29.34 50 28.68 50 28 C50.66 28 51.32 28 52 28 C52 27.34 52 26.68 52 26 C50.68 26 49.36 26 48 26 C48 25.34 48 24.68 48 24 C47.0925 23.71125 46.185 23.4225 45.25 23.125 C42.67797092 22.23468224 40.38653234 21.28505587 38 20 C38 19.34 38 18.68 38 18 C37.01 18.33 36.02 18.66 35 19 C34.01 18.67 33.02 18.34 32 18 C32 17.34 32 16.68 32 16 C31.34 16 30.68 16 30 16 C30 15.34 30 14.68 30 14 C28.68 14 27.36 14 26 14 C26 12.68 26 11.36 26 10 C24.576875 10.2784375 24.576875 10.2784375 23.125 10.5625 C20 11 20 11 18 10 C18 9.34 18 8.68 18 8 C15.69 8.33 13.38 8.66 11 9 C12.34006619 13.76467979 15.23508321 16.70397657 18.5390625 20.23046875 C20 22 20 22 20 24 C20.66 24 21.32 24 22 24 C22 24.66 22 25.32 22 26 C22.66 26 23.32 26 24 26 C24.20625 26.825 24.4125 27.65 24.625 28.5 C26.14253878 32.36282597 28.13902917 34.99159759 30.7578125 38.16796875 C32 40 32 40 32 43 C30.29115995 41.37660195 28.62553283 39.70680947 27 38 C27 37.34 27 36.68 27 36 C26.34 36 25.68 36 25 36 C23.66015625 34.5234375 23.66015625 34.5234375 22.0625 32.375 C21.44375 31.55773437 20.825 30.74046875 20.1875 29.8984375 C19.465625 28.94195312 18.74375 27.98546875 18 27 C16.1983514 24.65813315 14.38246475 22.32765067 12.5625 20 C12.09497314 19.39865234 11.62744629 18.79730469 11.14575195 18.17773438 C7.74694303 13.84329496 4.14030891 9.78763539 0.265625 5.8671875 C-1 4 -1 4 -0.703125 1.7578125 C-0.47109375 1.17773438 -0.2390625 0.59765625 0 0 Z " fill="#6E1A96" transform="translate(118,126)"/>
<path d="M0 0 C-0.33 2.64 -0.66 5.28 -1 8 C-0.34 8 0.32 8 1 8 C1.33 7.34 1.66 6.68 2 6 C2.495 7.98 2.495 7.98 3 10 C3.66 10 4.32 10 5 10 C10.58641521 28.91441091 13.30480207 46.22173234 13 66 C12.67 66 12.34 66 12 66 C11.505 62.04 11.505 62.04 11 58 C4.71552931 59.01621228 -0.9238821 60.573011 -6.7734375 63.09765625 C-8.83943746 63.93492992 -10.82698297 64.51876107 -13 65 C-13 65.66 -13 66.32 -13 67 C-15.90548882 69.04169485 -17.40142046 70 -21 70 C-21 70.66 -21 71.32 -21 72 C-26.41176471 76 -26.41176471 76 -29 76 C-29.66 77.32 -30.32 78.64 -31 80 C-31.66 80 -32.32 80 -33 80 C-33 80.66 -33 81.32 -33 82 C-33.66 82 -34.32 82 -35 82 C-35 82.66 -35 83.32 -35 84 C-35.66 84 -36.32 84 -37 84 C-37 84.66 -37 85.32 -37 86 C-37.66 86 -38.32 86 -39 86 C-39 86.66 -39 87.32 -39 88 C-39.66 88 -40.32 88 -41 88 C-41.2475 88.53625 -41.495 89.0725 -41.75 89.625 C-43.30652537 92.5823982 -45.03435673 95.29724051 -47 98 C-47.66 98 -48.32 98 -49 98 C-49 98.66 -49 99.32 -49 100 C-49.66 100 -50.32 100 -51 100 C-51.33 101.32 -51.66 102.64 -52 104 C-52.66 104 -53.32 104 -54 104 C-54.268125 104.53625 -54.53625 105.0725 -54.8125 105.625 C-56.20833333 108.41666667 -57.60416667 111.20833333 -59 114 C-59.66 114 -60.32 114 -61 114 C-61.226875 114.680625 -61.45375 115.36125 -61.6875 116.0625 C-62.79494945 118.54107734 -63.8216699 120.19050626 -65.4375 122.3125 C-68.17711996 125.99234456 -69.55335142 129.66005426 -71 134 C-71.66 134 -72.32 134 -73 134 C-73.495 134.99 -73.495 134.99 -74 136 C-74.46130944 130.57961414 -73.44602928 127.2851761 -71.08984375 122.421875 C-69.28917917 118.42039816 -68.16369272 114.22279402 -67 110 C-66.34 110 -65.68 110 -65 110 C-64.855625 109.0925 -64.71125 108.185 -64.5625 107.25 C-64.13590527 104.78523044 -63.64925779 102.41152893 -63 100 C-62.34 100 -61.68 100 -61 100 C-60.9175 99.17757812 -60.835 98.35515625 -60.75 97.5078125 C-59.82565675 93.18458208 -58.05986523 89.7570537 -56 85.875 C-55.26715168 84.47848834 -54.53785774 83.08010445 -53.8125 81.6796875 C-53.48894531 81.06851074 -53.16539062 80.45733398 -52.83203125 79.82763672 C-51.95802768 77.90780375 -51.44943531 76.0570745 -51 74 C-50.34 74 -49.68 74 -49 74 C-48.34 72.02 -47.68 70.04 -47 68 C-46.34 68 -45.68 68 -45 68 C-44.855625 67.236875 -44.71125 66.47375 -44.5625 65.6875 C-44 63 -44 63 -43 60 C-42.34 60 -41.68 60 -41 60 C-41 58.68 -41 57.36 -41 56 C-40.34 56 -39.68 56 -39 56 C-39 54.68 -39 53.36 -39 52 C-38.34 52 -37.68 52 -37 52 C-36.34 50.02 -35.68 48.04 -35 46 C-34.34 46 -33.68 46 -33 46 C-33 44.68 -33 43.36 -33 42 C-32.34 42 -31.68 42 -31 42 C-30.566875 40.63875 -30.566875 40.63875 -30.125 39.25 C-29.23468224 36.67797092 -28.28505587 34.38653234 -27 32 C-26.34 32 -25.68 32 -25 32 C-24.71125 31.0925 -24.4225 30.185 -24.125 29.25 C-23.23468224 26.67797092 -22.28505587 24.38653234 -21 22 C-20.34 22 -19.68 22 -19 22 C-18.71125 21.0925 -18.4225 20.185 -18.125 19.25 C-17.23468224 16.67797092 -16.28505587 14.38653234 -15 12 C-14.34 12 -13.68 12 -13 12 C-12.34 10.02 -11.68 8.04 -11 6 C-10.34 6 -9.68 6 -9 6 C-8.71125 5.030625 -8.4225 4.06125 -8.125 3.0625 C-6.33156674 -1.81962388 -4.56933421 -1.08221073 0 0 Z " fill="#0C132F" transform="translate(357,324)"/>
<path d="M0 0 C0 5.09455425 -1.37162697 5.94441462 -4.8125 9.5625 C-5.70582031 10.51253906 -6.59914063 11.46257812 -7.51953125 12.44140625 C-9.33164575 14.31059522 -11.14696304 16.17158812 -13 18 C-13 16.68 -13 15.36 -13 14 C-12.34 14 -11.68 14 -11 14 C-11 12.68 -11 11.36 -11 10 C-15.0357846 11.22012093 -18.55406335 12.53861668 -22 15 C-22.33 15.99 -22.66 16.98 -23 18 C-24.32 18 -25.64 18 -27 18 C-27.99 18.33 -28.98 18.66 -30 19 C-30.28875 19.66 -30.5775 20.32 -30.875 21 C-31.431875 21.99 -31.431875 21.99 -32 23 C-34.375 23.625 -34.375 23.625 -37 24 C-37.680625 24.350625 -38.36125 24.70125 -39.0625 25.0625 C-41 26 -41 26 -45 26 C-45 25.34 -45 24.68 -45 24 C-43.02 23.34 -41.04 22.68 -39 22 C-39 21.34 -39 20.68 -39 20 C-38.34 20 -37.68 20 -37 20 C-37 19.34 -37 18.68 -37 18 C-35.68 18 -34.36 18 -33 18 C-33 17.34 -33 16.68 -33 16 C-31.68 16 -30.36 16 -29 16 C-29 14.68 -29 13.36 -29 12 C-28.01 12 -27.02 12 -26 12 C-25.67 11.34 -25.34 10.68 -25 10 C-23.02 10.495 -23.02 10.495 -21 11 C-21 10.01 -21 9.02 -21 8 C-19.02 7.67 -17.04 7.34 -15 7 C-14.67 6.01 -14.34 5.02 -14 4 C-13.34 3.67 -12.68 3.34 -12 3 C-13.64574566 2.97311849 -15.29161413 2.95365877 -16.9375 2.9375 C-18.31228516 2.92009766 -18.31228516 2.92009766 -19.71484375 2.90234375 C-21.96593327 2.74050951 -21.96593327 2.74050951 -23 4 C-25.01964199 4.07244053 -27.04167124 4.08377188 -29.0625 4.0625 C-30.16722656 4.05347656 -31.27195312 4.04445312 -32.41015625 4.03515625 C-33.26480469 4.02355469 -34.11945313 4.01195312 -35 4 C-35 3.34 -35 2.68 -35 2 C-36.81293089 2.14037521 -38.6253443 2.28744889 -40.4375 2.4375 C-41.44683594 2.51871094 -42.45617187 2.59992188 -43.49609375 2.68359375 C-45.93640779 2.73211468 -45.93640779 2.73211468 -47 4 C-50.63953196 4.27070899 -54.27243524 4.44645517 -57.91796875 4.60546875 C-61.77473093 4.42699095 -61.77473093 4.42699095 -65 6 C-67.77558423 6.28479122 -70.55127845 6.44843019 -73.3359375 6.62109375 C-76.22178086 6.83584594 -76.22178086 6.83584594 -79 9 C-80.66619446 9.0396713 -82.33391013 9.04384447 -84 9 C-84.33 9.33 -84.66 9.66 -85 10 C-86.0725 10.12375 -87.145 10.2475 -88.25 10.375 C-91.9610661 10.99351102 -93.91001468 11.96943822 -97 14 C-97.66 14 -98.32 14 -99 14 C-99 14.66 -99 15.32 -99 16 C-102.61973402 17.31626692 -105.09567131 18 -109 18 C-109 18.66 -109 19.32 -109 20 C-109.9590625 20.433125 -109.9590625 20.433125 -110.9375 20.875 C-113.15206079 21.82823451 -113.15206079 21.82823451 -114 24 C-114.7425 24.433125 -115.485 24.86625 -116.25 25.3125 C-123.80295725 29.94726922 -132.18448978 39.55346935 -135 48 C-135.66 48 -136.32 48 -137 48 C-137 48.66 -137 49.32 -137 50 C-137.721875 50.350625 -138.44375 50.70125 -139.1875 51.0625 C-142.73636825 53.5072759 -143.97615737 56.15140012 -145.88671875 59.94140625 C-147 62 -147 62 -149 64 C-149 64.66 -149 65.32 -149 66 C-149.94875 66.2475 -150.8975 66.495 -151.875 66.75 C-155.06502274 67.6535718 -155.06502274 67.6535718 -156.125 69.9375 C-156.41375 70.618125 -156.7025 71.29875 -157 72 C-159.125 73.75 -159.125 73.75 -161 75 C-159.55977638 71.8257758 -157.78630568 69.36438875 -155.5625 66.6875 C-152.06287572 62.38759866 -148.7553225 57.98471125 -145.5 53.5 C-141.15154222 47.53542598 -136.75420678 41.65122692 -132 36 C-131.19304687 35.02289063 -130.38609375 34.04578125 -129.5546875 33.0390625 C-113.55129641 14.23827034 -90.01426958 6.10495856 -66.0625 2.8125 C-64.85609863 2.64524414 -63.64969727 2.47798828 -62.40673828 2.30566406 C-41.77433194 -0.28599585 -20.76778121 -0.10369489 0 0 Z " fill="#FCF1D3" transform="translate(509,126)"/>
<path d="M0 0 C25.24104231 -0.32452769 51.45694301 -0.59237926 76 6 C76 6.33 76 6.66 76 7 C74.47632813 6.89171875 74.47632813 6.89171875 72.921875 6.78125 C65.47949315 6.27311371 58.11383378 5.89137344 50.6484375 6.0625 C48 6 48 6 45.26757812 5.50219727 C41.81248396 4.97118048 38.56474841 4.88688164 35.0703125 4.90234375 C33.13671875 4.90717773 33.13671875 4.90717773 31.1640625 4.91210938 C29.81770764 4.92046267 28.47135348 4.92892759 27.125 4.9375 C25.75520996 4.9425217 24.38541815 4.94708343 23.015625 4.95117188 C19.6770381 4.96292746 16.33854185 4.97936036 13 5 C14.65 5.33 16.3 5.66 18 6 C18 6.66 18 7.32 18 8 C15.69 8.33 13.38 8.66 11 9 C12.34006619 13.76467979 15.23508321 16.70397657 18.5390625 20.23046875 C20 22 20 22 20 24 C20.66 24 21.32 24 22 24 C22 24.66 22 25.32 22 26 C22.66 26 23.32 26 24 26 C24.20625 26.825 24.4125 27.65 24.625 28.5 C26.14253878 32.36282597 28.13902917 34.99159759 30.7578125 38.16796875 C32 40 32 40 32 43 C30.29115995 41.37660195 28.62553283 39.70680947 27 38 C27 37.34 27 36.68 27 36 C26.34 36 25.68 36 25 36 C23.66015625 34.5234375 23.66015625 34.5234375 22.0625 32.375 C21.44375 31.55773437 20.825 30.74046875 20.1875 29.8984375 C19.465625 28.94195312 18.74375 27.98546875 18 27 C16.1983514 24.65813315 14.38246475 22.32765067 12.5625 20 C12.09497314 19.39865234 11.62744629 18.79730469 11.14575195 18.17773438 C7.74694303 13.84329496 4.14030891 9.78763539 0.265625 5.8671875 C-1 4 -1 4 -0.703125 1.7578125 C-0.47109375 1.17773438 -0.2390625 0.59765625 0 0 Z " fill="#AA3AB9" transform="translate(118,126)"/>
<path d="M0 0 C2.64 0 5.28 0 8 0 C7.525625 0.433125 7.05125 0.86625 6.5625 1.3125 C4.76313043 3.02309613 4.76313043 3.02309613 4 6 C3.01 6 2.02 6 1 6 C1 6.66 1 7.32 1 8 C-0.03640625 8.53109375 -1.0728125 9.0621875 -2.140625 9.609375 C-3.51062127 10.32252374 -4.88040164 11.03608736 -6.25 11.75 C-6.93191406 12.09804687 -7.61382812 12.44609375 -8.31640625 12.8046875 C-12.15007343 14.81457126 -15.04990006 16.76463096 -18 20 C-18.7425 20.433125 -19.485 20.86625 -20.25 21.3125 C-23.44061145 23.27037521 -26.02633184 25.60185698 -28.80859375 28.09375 C-31.77592227 30.67495556 -34.88551486 33.04778825 -38.01953125 35.421875 C-39.82113068 36.85746903 -41.38901661 38.35878368 -43 40 C-44.16046211 41.00719353 -45.32774168 42.00656075 -46.5 43 C-50.11386142 46.14278079 -53.5459171 49.43420007 -56.9375 52.8125 C-57.4221875 53.29267578 -57.906875 53.77285156 -58.40625 54.26757812 C-61.03349013 56.88502049 -61.03349013 56.88502049 -63 60 C-63.99 60 -64.98 60 -66 60 C-64.83242263 56.67689517 -63.85051143 54.16638868 -61 52 C-60.01 52 -59.02 52 -58 52 C-58 51.01 -58 50.02 -58 49 C-57.34 49 -56.68 49 -56 49 C-56 48.01 -56 47.02 -56 46 C-54.68 46 -53.36 46 -52 46 C-52 45.34 -52 44.68 -52 44 C-51.34 44 -50.68 44 -50 44 C-50 43.34 -50 42.68 -50 42 C-47.08261539 39.40676924 -44.24709303 37.16472869 -41 35 C-40.67 34.01 -40.34 33.02 -40 32 C-39.01 32 -38.02 32 -37 32 C-36.67 31.01 -36.34 30.02 -36 29 C-35.34 29 -34.68 29 -34 29 C-33.505 27.515 -33.505 27.515 -33 26 C-32.01 26 -31.02 26 -30 26 C-30 25.34 -30 24.68 -30 24 C-28.02 23.34 -26.04 22.68 -24 22 C-24 21.34 -24 20.68 -24 20 C-23.34 20 -22.68 20 -22 20 C-22 19.34 -22 18.68 -22 18 C-19 16 -19 16 -16 16 C-16 15.34 -16 14.68 -16 14 C-15.34 14 -14.68 14 -14 14 C-14 13.34 -14 12.68 -14 12 C-12.68 11.67 -11.36 11.34 -10 11 C-10 10.01 -10 9.02 -10 8 C-7.36 7.34 -4.72 6.68 -2 6 C-2 5.34 -2 4.68 -2 4 C-1.34 4 -0.68 4 0 4 C0 2.68 0 1.36 0 0 Z " fill="#F8CD79" transform="translate(456,152)"/>
<path d="M0 0 C0.90105469 0.01804687 1.80210937 0.03609375 2.73046875 0.0546875 C3.41753906 0.07789062 4.10460937 0.10109375 4.8125 0.125 C4.31735982 4.46537775 1.50136128 7.21112375 -1.25 10.375 C-1.72244141 10.92929688 -2.19488281 11.48359375 -2.68164062 12.0546875 C-3.84408967 13.416749 -5.01497855 14.77159956 -6.1875 16.125 C-6.6825 14.145 -6.6825 14.145 -7.1875 12.125 C-6.5275 12.125 -5.8675 12.125 -5.1875 12.125 C-5.1875 10.805 -5.1875 9.485 -5.1875 8.125 C-9.2232846 9.34512093 -12.74156335 10.66361668 -16.1875 13.125 C-16.5175 14.115 -16.8475 15.105 -17.1875 16.125 C-18.5075 16.125 -19.8275 16.125 -21.1875 16.125 C-22.1775 16.455 -23.1675 16.785 -24.1875 17.125 C-24.620625 18.115 -24.620625 18.115 -25.0625 19.125 C-25.43375 19.785 -25.805 20.445 -26.1875 21.125 C-28.5625 21.75 -28.5625 21.75 -31.1875 22.125 C-31.868125 22.475625 -32.54875 22.82625 -33.25 23.1875 C-35.1875 24.125 -35.1875 24.125 -39.1875 24.125 C-39.1875 23.465 -39.1875 22.805 -39.1875 22.125 C-37.2075 21.465 -35.2275 20.805 -33.1875 20.125 C-33.1875 19.465 -33.1875 18.805 -33.1875 18.125 C-32.5275 18.125 -31.8675 18.125 -31.1875 18.125 C-31.1875 17.465 -31.1875 16.805 -31.1875 16.125 C-29.8675 16.125 -28.5475 16.125 -27.1875 16.125 C-27.1875 15.465 -27.1875 14.805 -27.1875 14.125 C-25.8675 14.125 -24.5475 14.125 -23.1875 14.125 C-23.1875 12.805 -23.1875 11.485 -23.1875 10.125 C-22.1975 10.125 -21.2075 10.125 -20.1875 10.125 C-19.8575 9.465 -19.5275 8.805 -19.1875 8.125 C-17.8675 8.455 -16.5475 8.785 -15.1875 9.125 C-15.1875 8.135 -15.1875 7.145 -15.1875 6.125 C-13.2075 5.795 -11.2275 5.465 -9.1875 5.125 C-8.8575 4.135 -8.5275 3.145 -8.1875 2.125 C-4.87379 -0.08414 -3.8428979 -0.09981553 0 0 Z " fill="#FBDB7F" transform="translate(503.1875,127.875)"/>
<path d="M0 0 C2 3 2 3 2 7 C2.99 7 3.98 7 5 7 C4.835 7.680625 4.67 8.36125 4.5 9.0625 C3.74873174 13.47620103 3.78560767 17.61973861 4.47265625 22.04296875 C5.13393993 27.00504554 5.35408581 31.93897616 5.5625 36.9375 C5.60568359 37.90751953 5.64886719 38.87753906 5.69335938 39.87695312 C5.79862093 42.25118601 5.90075707 44.62550921 6 47 C6.33 45.68 6.66 44.36 7 43 C7.66 43 8.32 43 9 43 C9.33 42.01 9.66 41.02 10 40 C11.485 39.505 11.485 39.505 13 39 C13 39.66 13 40.32 13 41 C12.34 41 11.68 41 11 41 C10.7834375 42.36125 10.7834375 42.36125 10.5625 43.75 C10.13590527 46.21476956 9.64925779 48.58847107 9 51 C8.34 51 7.68 51 7 51 C6.87753906 51.85851562 6.75507813 52.71703125 6.62890625 53.6015625 C5.99872884 57.00686898 5.06437721 60.10342101 3.9375 63.375 C3.57527344 64.43460937 3.21304687 65.49421875 2.83984375 66.5859375 C2.56269531 67.38257813 2.28554688 68.17921875 2 69 C1.67 69 1.34 69 1 69 C1.00444122 68.37740799 1.00888245 67.75481598 1.01345825 67.11335754 C1.05804957 60.5747001 1.08801348 54.03608655 1.10986328 47.49731445 C1.11985889 45.06402835 1.13345985 42.63075406 1.15087891 40.19750977 C1.17541253 36.6798204 1.18654785 33.16229121 1.1953125 29.64453125 C1.20563507 28.57419144 1.21595764 27.50385162 1.22659302 26.40107727 C1.22756706 19.69454812 0.5653727 13.38521021 -0.66702271 6.7898407 C-0.98389933 4.13489902 -0.85738 2.50147732 0 0 Z " fill="#B311E0" transform="translate(283,383)"/>
<path d="M0 0 C0 1.32 0 2.64 0 4 C-0.495 3.01 -0.495 3.01 -1 2 C-4.47951523 2.13818532 -7.95850495 2.28682601 -11.4375 2.4375 C-12.92733398 2.49647461 -12.92733398 2.49647461 -14.44726562 2.55664062 C-15.86362305 2.61948242 -15.86362305 2.61948242 -17.30859375 2.68359375 C-18.62041626 2.73858032 -18.62041626 2.73858032 -19.95874023 2.79467773 C-21.9927402 2.78181066 -21.9927402 2.78181066 -23 4 C-25.01964199 4.07244053 -27.04167124 4.08377188 -29.0625 4.0625 C-30.16722656 4.05347656 -31.27195312 4.04445312 -32.41015625 4.03515625 C-33.26480469 4.02355469 -34.11945313 4.01195312 -35 4 C-35 3.34 -35 2.68 -35 2 C-36.81293089 2.14037521 -38.6253443 2.28744889 -40.4375 2.4375 C-41.44683594 2.51871094 -42.45617187 2.59992188 -43.49609375 2.68359375 C-45.93640779 2.73211468 -45.93640779 2.73211468 -47 4 C-50.63953196 4.27070899 -54.27243524 4.44645517 -57.91796875 4.60546875 C-61.77473093 4.42699095 -61.77473093 4.42699095 -65 6 C-67.77558423 6.28479122 -70.55127845 6.44843019 -73.3359375 6.62109375 C-76.22178086 6.83584594 -76.22178086 6.83584594 -79 9 C-80.66619446 9.0396713 -82.33391013 9.04384447 -84 9 C-84.33 9.33 -84.66 9.66 -85 10 C-86.0725 10.12375 -87.145 10.2475 -88.25 10.375 C-91.95242771 10.75236732 -91.95242771 10.75236732 -94.5625 12.5625 C-97.55537604 14.32752946 -99.58394702 14.23832928 -103 14 C-87.96464821 -1.03535179 -49.93589756 0.74144435 -30.125 0.375 C-28.4166506 0.33664665 -26.70831692 0.29758629 -25 0.2578125 C-16.66636153 0.07081851 -8.33613597 -0.06338374 0 0 Z " fill="#F8EFD3" transform="translate(509,126)"/>
<path d="M0 0 C1.32 0.33 2.64 0.66 4 1 C-2.13896566 9.88219109 -8.6009014 18.27015303 -15.6640625 26.43310547 C-18.59725866 29.87339292 -21.40054715 33.42166117 -24.22265625 36.953125 C-26 39 -26 39 -28 40 C-28 38.68 -28 37.36 -28 36 C-27.34 36 -26.68 36 -26 36 C-26 34.02 -26 32.04 -26 30 C-25.34 30 -24.68 30 -24 30 C-24 29.34 -24 28.68 -24 28 C-22.68 28 -21.36 28 -20 28 C-20 26.02 -20 24.04 -20 22 C-18.68 22 -17.36 22 -16 22 C-16 20.68 -16 19.36 -16 18 C-15.34 18 -14.68 18 -14 18 C-14 17.34 -14 16.68 -14 16 C-13.34 16 -12.68 16 -12 16 C-12 15.34 -12 14.68 -12 14 C-11.34 14 -10.68 14 -10 14 C-10 13.34 -10 12.68 -10 12 C-9.34 12 -8.68 12 -8 12 C-8 10.68 -8 9.36 -8 8 C-6.68 8 -5.36 8 -4 8 C-4 6.68 -4 5.36 -4 4 C-3.34 4 -2.68 4 -2 4 C-2 3.34 -2 2.68 -2 2 C-1.34 2 -0.68 2 0 2 C0 1.34 0 0.68 0 0 Z " fill="#F8DA7D" transform="translate(492,144)"/>
<path d="M0 0 C0.66 0.33 1.32 0.66 2 1 C2 1.66 2 2.32 2 3 C28.4 2.67 54.8 2.34 82 2 C81.67 2.99 81.34 3.98 81 5 C53.94 5 26.88 5 -1 5 C-0.67 3.35 -0.34 1.7 0 0 Z " fill="#0E2052" transform="translate(274,494)"/>
<path d="M0 0 C0.33 0.66 0.66 1.32 1 2 C1.66 2.33 2.32 2.66 3 3 C2.01 5.31 1.02 7.62 0 10 C0.66 10.33 1.32 10.66 2 11 C1.34 13.31 0.68 15.62 0 18 C0.66 18 1.32 18 2 18 C2.5745952 21.73486879 3 25.21293268 3 29 C3.66 29.66 4.32 30.32 5 31 C6.28317892 34.84953676 6.06643637 37.94738135 6 42 C7.32 42 8.64 42 10 42 C9.814375 43.093125 9.62875 44.18625 9.4375 45.3125 C8.7421932 48.93624133 8.7421932 48.93624133 10 52 C9.34 52.99 8.68 53.98 8 55 C6.24619442 51.08709763 5.47435082 47.4257665 4.875 43.1875 C4.70742188 42.02605469 4.53984375 40.86460937 4.3671875 39.66796875 C4.24601562 38.78753906 4.12484375 37.90710938 4 37 C3.34 37 2.68 37 2 37 C0.79808016 33.40047958 -0.38402448 29.79475743 -1.5625 26.1875 C-2.07586914 24.65125977 -2.07586914 24.65125977 -2.59960938 23.08398438 C-3.07817383 21.60961914 -3.07817383 21.60961914 -3.56640625 20.10546875 C-3.86490479 19.19949951 -4.16340332 18.29353027 -4.47094727 17.36010742 C-5 15 -5 15 -4 12 C-3.34 13.65 -2.68 15.3 -2 17 C-1.93941406 15.94039063 -1.87882812 14.88078125 -1.81640625 13.7890625 C-1.73199873 12.40102779 -1.64735083 11.01300768 -1.5625 9.625 C-1.50352539 8.57699219 -1.50352539 8.57699219 -1.44335938 7.5078125 C-1.11328125 2.2265625 -1.11328125 2.2265625 0 0 Z " fill="#B697CF" transform="translate(274,326)"/>
<path d="M0 0 C1.32 0 2.64 0 4 0 C-0.91323386 11.07469471 -11.13911767 20.868823 -19 30 C-19.33 28.68 -19.66 27.36 -20 26 C-19.34 26 -18.68 26 -18 26 C-18 25.34 -18 24.68 -18 24 C-17.34 24 -16.68 24 -16 24 C-16 22.02 -16 20.04 -16 18 C-15.34 18 -14.68 18 -14 18 C-14 17.34 -14 16.68 -14 16 C-13.34 16 -12.68 16 -12 16 C-12 13.36 -12 10.72 -12 8 C-11.34 8 -10.68 8 -10 8 C-10 8.66 -10 9.32 -10 10 C-9.34 10 -8.68 10 -8 10 C-8 9.34 -8 8.68 -8 8 C-6.68 8 -5.36 8 -4 8 C-4 7.34 -4 6.68 -4 6 C-3.34 6 -2.68 6 -2 6 C-2 4.68 -2 3.36 -2 2 C-1.34 2 -0.68 2 0 2 C0 1.34 0 0.68 0 0 Z " fill="#F3B96F" transform="translate(460,184)"/>
<path d="M0 0 C2 3 2 3 2 7 C2.99 7 3.98 7 5 7 C4.83923477 7.7243071 4.67846954 8.4486142 4.51283264 9.19487 C4.03339877 11.81731293 3.8448781 14.22146047 3.79467773 16.88208008 C3.77473251 17.82267776 3.75478729 18.76327545 3.73423767 19.7323761 C3.71752518 20.7346373 3.70081268 21.7368985 3.68359375 22.76953125 C3.66281265 23.80567062 3.64203156 24.84181 3.62062073 25.90934753 C3.5553787 29.21033265 3.49635821 32.51139549 3.4375 35.8125 C3.39429068 38.05404441 3.35067562 40.29558103 3.30664062 42.53710938 C3.19972333 48.02465807 3.09791038 53.51228361 3 59 C3.66 59 4.32 59 5 59 C3.515 63.95 3.515 63.95 2 69 C1.67 69 1.34 69 1 69 C1.00444122 68.37740799 1.00888245 67.75481598 1.01345825 67.11335754 C1.05804957 60.5747001 1.08801348 54.03608655 1.10986328 47.49731445 C1.11985889 45.06402835 1.13345985 42.63075406 1.15087891 40.19750977 C1.17541253 36.6798204 1.18654785 33.16229121 1.1953125 29.64453125 C1.20563507 28.57419144 1.21595764 27.50385162 1.22659302 26.40107727 C1.22756706 19.69454812 0.5653727 13.38521021 -0.66702271 6.7898407 C-0.98389933 4.13489902 -0.85738 2.50147732 0 0 Z " fill="#872CB2" transform="translate(283,383)"/>
<path d="M0 0 C1.98 0 3.96 0 6 0 C5.73401624 5.31967516 3.6965398 7.91813074 0.5 11.8984375 C-1.76347274 15.06965711 -2.81228948 18.30490062 -4 22 C-4.66 22 -5.32 22 -6 22 C-6.33 22.66 -6.66 23.32 -7 24 C-7.46217085 18.56949253 -6.44796226 15.17313713 -4.08984375 10.2890625 C-2.49441768 6.93809592 -1.26776804 3.48636211 0 0 Z " fill="#090B1B" transform="translate(290,436)"/>
<path d="M0 0 C1 3 1 3 0.0625 5.1875 C-0.288125 5.785625 -0.63875 6.38375 -1 7 C-1.66 7 -2.32 7 -3 7 C-3 7.66 -3 8.32 -3 9 C-3.721875 9.350625 -4.44375 9.70125 -5.1875 10.0625 C-8.73636825 12.5072759 -9.97615737 15.15140012 -11.88671875 18.94140625 C-13 21 -13 21 -15 23 C-15 23.66 -15 24.32 -15 25 C-15.94875 25.2475 -16.8975 25.495 -17.875 25.75 C-21.06502274 26.6535718 -21.06502274 26.6535718 -22.125 28.9375 C-22.41375 29.618125 -22.7025 30.29875 -23 31 C-25.125 32.75 -25.125 32.75 -27 34 C-25.55977638 30.8257758 -23.78630568 28.36438875 -21.5625 25.6875 C-18.97815537 22.5304343 -16.49745905 19.33498451 -14.1328125 16.01171875 C-13.64482178 15.32827393 -13.15683105 14.6448291 -12.65405273 13.94067383 C-11.68455442 12.57511278 -10.72295684 11.20390433 -9.76977539 9.8269043 C-8.58511012 8.16426499 -7.29950038 6.57451581 -6 5 C-5.01 5 -4.02 5 -3 5 C-3 4.34 -3 3.68 -3 3 C-2.34 3 -1.68 3 -1 3 C-0.67 2.01 -0.34 1.02 0 0 Z " fill="#F7E5C9" transform="translate(375,167)"/>
<path d="M0 0 C0.66 0 1.32 0 2 0 C1.57972104 3.64241764 -0.25082555 5.60354839 -2.6015625 8.30078125 C-6.76555091 13.3603761 -9.52112315 18.96447375 -12 25 C-13.2922213 27.68760312 -14.64833942 30.34190169 -16 33 C-16.75102512 34.499487 -17.50105876 35.99947109 -18.25 37.5 C-18.8275 38.655 -19.405 39.81 -20 41 C-20.99 41 -21.98 41 -23 41 C-22.690625 40.4225 -22.38125 39.845 -22.0625 39.25 C-21.07416636 37.15705816 -20.4831387 35.25464725 -20 33 C-19.34 33 -18.68 33 -18 33 C-18 31.68 -18 30.36 -18 29 C-17.34 29 -16.68 29 -16 29 C-16 27.68 -16 26.36 -16 25 C-15.34 25 -14.68 25 -14 25 C-14 23.68 -14 22.36 -14 21 C-13.34 21 -12.68 21 -12 21 C-12 19.68 -12 18.36 -12 17 C-11.34 17 -10.68 17 -10 17 C-9.34 15.02 -8.68 13.04 -8 11 C-7.34 11 -6.68 11 -6 11 C-6 9.68 -6 8.36 -6 7 C-5.34 7 -4.68 7 -4 7 C-4 6.34 -4 5.68 -4 5 C-3.02149805 3.97895449 -2.02019573 2.9793879 -1 2 C-0.67 1.34 -0.34 0.68 0 0 Z " fill="#CB62A6" transform="translate(334,283)"/>
<path d="M0 0 C4.28904235 1.5885342 6.32345526 4.43127368 9 8 C9 8.66 9 9.32 9 10 C9.66 10 10.32 10 11 10 C11 10.66 11 11.32 11 12 C11.66 12 12.32 12 13 12 C13.20625 12.825 13.4125 13.65 13.625 14.5 C15.14253878 18.36282597 17.13902917 20.99159759 19.7578125 24.16796875 C21 26 21 26 21 29 C19.29115995 27.37660195 17.62553283 25.70680947 16 24 C16 23.34 16 22.68 16 22 C15.34 22 14.68 22 14 22 C12.4140625 20.20703125 12.4140625 20.20703125 10.625 17.8125 C8.6882484 15.23955973 6.76098976 12.71577161 4.6875 10.25 C2.29169088 7.05558784 1.25188363 3.75565089 0 0 Z " fill="#A272BA" transform="translate(129,140)"/>
<path d="M0 0 C0 1.32 0 2.64 0 4 C-0.495 3.01 -0.495 3.01 -1 2 C-4.47951523 2.13818532 -7.95850495 2.28682601 -11.4375 2.4375 C-12.92733398 2.49647461 -12.92733398 2.49647461 -14.44726562 2.55664062 C-15.86362305 2.61948242 -15.86362305 2.61948242 -17.30859375 2.68359375 C-18.62041626 2.73858032 -18.62041626 2.73858032 -19.95874023 2.79467773 C-21.9927402 2.78181066 -21.9927402 2.78181066 -23 4 C-25.01964199 4.07244053 -27.04167124 4.08377188 -29.0625 4.0625 C-30.16722656 4.05347656 -31.27195312 4.04445312 -32.41015625 4.03515625 C-33.26480469 4.02355469 -34.11945313 4.01195312 -35 4 C-35 3.34 -35 2.68 -35 2 C-39.95 2 -44.9 2 -50 2 C-50 1.67 -50 1.34 -50 1 C-44.647265 0.85571522 -39.2944828 0.71337876 -33.94165039 0.57275391 C-32.12523033 0.52477118 -30.30882363 0.47627996 -28.49243164 0.42724609 C-9.13453923 -0.09464482 -9.13453923 -0.09464482 0 0 Z " fill="#FCF1CC" transform="translate(509,126)"/>
<path d="M0 0 C4.39032617 2.38729095 7.81936289 5.35868719 11.4375 8.75 C12.01008545 9.28206055 12.5826709 9.81412109 13.17260742 10.36230469 C17.07596111 14.0288382 20.66219088 17.80389711 24 22 C23.67 22.66 23.34 23.32 23 24 C22.443125 23.401875 21.88625 22.80375 21.3125 22.1875 C19.14533124 19.95867598 19.14533124 19.95867598 16.7109375 18.71875 C13.45359316 16.65357491 10.94754736 14.0909513 8.3125 11.3125 C6.57842567 9.48631016 4.82935827 7.73509182 3 6 C2.34 6 1.68 6 1 6 C0.67 4.02 0.34 2.04 0 0 Z " fill="#B180BE" transform="translate(235,153)"/>
<path d="M0 0 C1.65 0 3.3 0 5 0 C1.63722386 4.21791509 -1.25889874 7.32553262 -6 10 C-7.68953361 11.64348159 -9.35246106 13.31442265 -11 15 C-11.95128739 15.94326311 -12.90443828 16.88465031 -13.859375 17.82421875 C-14.82292902 18.77863337 -15.78647062 19.73306052 -16.75 20.6875 C-17.24371094 21.17283203 -17.73742187 21.65816406 -18.24609375 22.15820312 C-20.96615276 24.81840217 -20.96615276 24.81840217 -23 28 C-23.99 28 -24.98 28 -26 28 C-24.83242263 24.67689517 -23.85051143 22.16638868 -21 20 C-20.01 20 -19.02 20 -18 20 C-18 19.01 -18 18.02 -18 17 C-17.34 17 -16.68 17 -16 17 C-16 16.01 -16 15.02 -16 14 C-14.68 14 -13.36 14 -12 14 C-12 13.34 -12 12.68 -12 12 C-11.34 12 -10.68 12 -10 12 C-10 11.34 -10 10.68 -10 10 C-7.08261539 7.40676924 -4.24709303 5.16472869 -1 3 C-0.67 2.01 -0.34 1.02 0 0 Z " fill="#F3BF7E" transform="translate(416,184)"/>
<path d="M0 0 C0.66 0 1.32 0 2 0 C0.42458807 3.57819624 -1.75686314 6.31479973 -4.25 9.3125 C-5.04792969 10.27414063 -5.84585937 11.23578125 -6.66796875 12.2265625 C-9.4236828 15.50387737 -12.19564626 18.76420722 -15 22 C-15.33 20.68 -15.66 19.36 -16 18 C-15.34 18 -14.68 18 -14 18 C-14 16.02 -14 14.04 -14 12 C-13.34 12 -12.68 12 -12 12 C-12 11.34 -12 10.68 -12 10 C-10.68 10 -9.36 10 -8 10 C-8 8.02 -8 6.04 -8 4 C-6.02 4 -4.04 4 -2 4 C-2 3.34 -2 2.68 -2 2 C-1.34 2 -0.68 2 0 2 C0 1.34 0 0.68 0 0 Z " fill="#F9D98A" transform="translate(480,162)"/>
<path d="M0 0 C0.66 0 1.32 0 2 0 C2 1.32 2 2.64 2 4 C1.34 4 0.68 4 0 4 C-0.66 5.98 -1.32 7.96 -2 10 C-2.66 10 -3.32 10 -4 10 C-4 11.32 -4 12.64 -4 14 C-4.66 14 -5.32 14 -6 14 C-6 15.32 -6 16.64 -6 18 C-6.66 18 -7.32 18 -8 18 C-8.144375 18.5775 -8.28875 19.155 -8.4375 19.75 C-8.95833333 21.83333333 -9.47916667 23.91666667 -10 26 C-10.66 26 -11.32 26 -12 26 C-12.66 27.98 -13.32 29.96 -14 32 C-14.66 31.34 -15.32 30.68 -16 30 C-16 28.68 -16 27.36 -16 26 C-14.35 25.34 -12.7 24.68 -11 24 C-11.20625 23.236875 -11.4125 22.47375 -11.625 21.6875 C-12 19 -12 19 -10 16 C-9.34 16 -8.68 16 -8 16 C-8 14.68 -8 13.36 -8 12 C-7.34 12 -6.68 12 -6 12 C-4.26337666 8.77484237 -3.1094072 5.48670834 -2 2 C-1.34 2 -0.68 2 0 2 C0 1.34 0 0.68 0 0 Z " fill="#9A14C3" transform="translate(322,366)"/>
<path d="M0 0 C10.5099312 -0.13512769 20.99550528 0.07511006 31.5 0.4375 C33.28809082 0.49635376 33.28809082 0.49635376 35.11230469 0.55639648 C41.45700809 0.78820507 47.70124925 1.19919729 54 2 C54 2.33 54 2.66 54 3 C36.51 2.67 19.02 2.34 1 2 C2.32 3.65 3.64 5.3 5 7 C4.67 7.66 4.34 8.32 4 9 C1.4375 6.75 1.4375 6.75 -1 4 C-0.65234375 1.828125 -0.65234375 1.828125 0 0 Z " fill="#DACBDC" transform="translate(118,126)"/>
<path d="M0 0 C2.31 0 4.62 0 7 0 C7 0.66 7 1.32 7 2 C9.64 2 12.28 2 15 2 C15 2.66 15 3.32 15 4 C12.69 4.33 10.38 4.66 8 5 C8.46800711 9.05606165 8.87953208 12.46588679 11 16 C5.86400547 11.00667198 1.95649838 7.01078585 0 0 Z " fill="#781797" transform="translate(121,130)"/>
<path d="M0 0 C1.32 0 2.64 0 4 0 C4 1.32 4 2.64 4 4 C2.68 4 1.36 4 0 4 C-0.99 4.33 -1.98 4.66 -3 5 C-3.433125 5.99 -3.433125 5.99 -3.875 7 C-4.24625 7.66 -4.6175 8.32 -5 9 C-7.375 9.625 -7.375 9.625 -10 10 C-10.680625 10.350625 -11.36125 10.70125 -12.0625 11.0625 C-14 12 -14 12 -18 12 C-18 11.34 -18 10.68 -18 10 C-16.02 9.34 -14.04 8.68 -12 8 C-12 7.34 -12 6.68 -12 6 C-11.34 6 -10.68 6 -10 6 C-10 5.34 -10 4.68 -10 4 C-8.68 4 -7.36 4 -6 4 C-6 3.34 -6 2.68 -6 2 C-4.02 2 -2.04 2 0 2 C0 1.34 0 0.68 0 0 Z " fill="#FCD25A" transform="translate(482,140)"/>
<path d="M0 0 C0 3.58644607 -0.69867931 4.14171861 -2.9375 6.8125 C-5.0811395 9.52678427 -5.94881355 10.63438248 -6.4375 14.125 C-7.31129983 18.59108803 -10.41602307 20.44217225 -14 23 C-15.63834629 24.04575295 -17.29367772 25.06927875 -19 26 C-17.63728552 23.08076818 -16.0677556 20.61523275 -14.1015625 18.06640625 C-13.53953125 17.33486328 -12.9775 16.60332031 -12.3984375 15.84960938 C-11.81320312 15.09486328 -11.22796875 14.34011719 -10.625 13.5625 C-9.75875 12.43618164 -9.75875 12.43618164 -8.875 11.28710938 C-5.95324294 7.49482881 -3.00695117 3.72536069 0 0 Z " fill="#F5DCCD" transform="translate(347,201)"/>
<path d="M0 0 C0.33 0 0.66 0 1 0 C1.3732988 4.35515272 0.27682292 6.35708332 -2 10 C-3.09797774 13.59280533 -3.09797774 13.59280533 -2 17 C-4 19 -4 19 -6 20 C-6.495 21.155 -6.99 22.31 -7.5 23.5 C-9 27 -9 27 -11 28 C-10.34 25.03 -9.68 22.06 -9 19 C-8.34 19 -7.68 19 -7 19 C-6.855625 18.278125 -6.71125 17.55625 -6.5625 16.8125 C-6.04166667 14.20833333 -5.52083333 11.60416667 -5 9 C-4.34 9 -3.68 9 -3 9 C-3 7.68 -3 6.36 -3 5 C-2.34 5 -1.68 5 -1 5 C-1.33 4.01 -1.66 3.02 -2 2 C-1.34 1.34 -0.68 0.68 0 0 Z " fill="#B230BE" transform="translate(311,325)"/>
<path d="M0 0 C1.12011686 3.36035058 0.91362649 3.9421393 -0.25 7.125 C-1.14420606 9.59317058 -2.00853989 12.02986679 -2.73046875 14.5546875 C-2.96378906 15.36164063 -3.19710938 16.16859375 -3.4375 17 C-3.64246094 17.7425 -3.84742188 18.485 -4.05859375 19.25 C-5 21 -5 21 -7.09765625 21.75 C-8.03931641 21.87375 -8.03931641 21.87375 -9 22 C-8.4560915 16.52638111 -6.44606199 12.41682999 -3.9375 7.625 C-3.37192383 6.52091797 -3.37192383 6.52091797 -2.79492188 5.39453125 C-1.87055636 3.59260354 -0.93627386 1.79576901 0 0 Z " fill="#BC65AA" transform="translate(289,283)"/>
<path d="M0 0 C2.64 0 5.28 0 8 0 C7.2884375 0.6496875 7.2884375 0.6496875 6.5625 1.3125 C4.76313043 3.02309613 4.76313043 3.02309613 4 6 C3.01 6 2.02 6 1 6 C1 6.66 1 7.32 1 8 C-5.75 12 -5.75 12 -8 12 C-8 11.34 -8 10.68 -8 10 C-7.34 10 -6.68 10 -6 10 C-6 9.01 -6 8.02 -6 7 C-4.68 6.67 -3.36 6.34 -2 6 C-2 5.34 -2 4.68 -2 4 C-1.34 4 -0.68 4 0 4 C0 2.68 0 1.36 0 0 Z " fill="#FCD878" transform="translate(456,152)"/>
<path d="M0 0 C0.33 0.66 0.66 1.32 1 2 C0.34 2 -0.32 2 -1 2 C-1.144375 2.9075 -1.28875 3.815 -1.4375 4.75 C-1.86409473 7.21476956 -2.35074221 9.58847107 -3 12 C-3.66 12 -4.32 12 -5 12 C-5.33 13.98 -5.66 15.96 -6 18 C-8 16 -8 16 -8.1953125 13.6171875 C-8.17210937 12.71226562 -8.14890625 11.80734375 -8.125 10.875 C-8.10695313 9.96492188 -8.08890625 9.05484375 -8.0703125 8.1171875 C-8.04710937 7.41851562 -8.02390625 6.71984375 -8 6 C-7.34 6.66 -6.68 7.32 -6 8 C-5.67 6.68 -5.34 5.36 -5 4 C-4.34 4 -3.68 4 -3 4 C-2.67 3.01 -2.34 2.02 -2 1 C-1.34 0.67 -0.68 0.34 0 0 Z " fill="#A210D2" transform="translate(295,422)"/>
<path d="M0 0 C0 0.66 0 1.32 0 2 C-3.61973402 3.31626692 -6.09567131 4 -10 4 C-10 4.66 -10 5.32 -10 6 C-10.639375 6.28875 -11.27875 6.5775 -11.9375 6.875 C-14.15206079 7.82823451 -14.15206079 7.82823451 -15 10 C-17.93704456 12.0095568 -19.39222485 13 -23 13 C-20.18666733 9.13333425 -17.45066288 6.73274882 -13.375 4.25 C-12.41335938 3.65703125 -11.45171875 3.0640625 -10.4609375 2.453125 C-6.62286456 0.18683431 -4.479214 -0.09737422 0 0 Z " fill="#FCE9BE" transform="translate(410,140)"/>
<path d="M0 0 C0.33 0 0.66 0 1 0 C1 2.64 1 5.28 1 8 C2.32 8 3.64 8 5 8 C4.814375 9.093125 4.62875 10.18625 4.4375 11.3125 C3.7421932 14.93624133 3.7421932 14.93624133 5 18 C4.34 18.99 3.68 19.98 3 21 C-0.05569935 14.45207282 -1.86590627 7.09044381 0 0 Z " fill="#A823CD" transform="translate(279,360)"/>
<path d="M0 0 C2 3 2 3 2 7 C2.99 7 3.98 7 5 7 C4.855625 7.680625 4.71125 8.36125 4.5625 9.0625 C3.93054091 12.36273082 3.45686059 15.67144426 3 19 C0.32623043 16.32623043 0.36714587 14.33654001 -0.1875 10.625 C-0.36667969 9.48289062 -0.54585938 8.34078125 -0.73046875 7.1640625 C-0.96850395 4.3697362 -0.90712129 2.61199462 0 0 Z " fill="#A721D3" transform="translate(283,383)"/>
<path d="M0 0 C0.66 0 1.32 0 2 0 C1.4560915 5.47361889 -0.55393801 9.58317001 -3.0625 14.375 C-3.43955078 15.11105469 -3.81660156 15.84710938 -4.20507812 16.60546875 C-5.12944364 18.40739646 -6.06372614 20.20423099 -7 22 C-7.33 22 -7.66 22 -8 22 C-8.20086443 18.28400809 -8.1519437 17.22791555 -6 14 C-5.67 12.989375 -5.34 11.97875 -5 10.9375 C-4 8 -4 8 -2 6 C-1.6278958 4.67696283 -1.29369827 3.34262065 -1 2 C-0.67 1.34 -0.34 0.68 0 0 Z " fill="#A213D1" transform="translate(304,398)"/>
<path d="M0 0 C4.99628362 4.99628362 4.04779231 11.2491685 4.0625 18 C4.04659055 20.00004523 4.02743793 22.0000797 4 24 C3.67 24 3.34 24 3 24 C2.67 21.36 2.34 18.72 2 16 C1.34 16 0.68 16 0 16 C0 10.72 0 5.44 0 0 Z " fill="#14183D" transform="translate(366,366)"/>
<path d="M0 0 C0.66 0.66 1.32 1.32 2 2 C1.13375 3.2065625 1.13375 3.2065625 0.25 4.4375 C-1.98496849 7.75441437 -3.48309292 11.24768583 -4.97265625 14.94921875 C-6.04693409 17.09368972 -7.2207531 18.41228676 -9 20 C-9 16.20442119 -8.49821059 14.37097383 -7 11 C-6.34 11 -5.68 11 -5 11 C-5 9.68 -5 8.36 -5 7 C-4.34 7 -3.68 7 -3 7 C-3 5.68 -3 4.36 -3 3 C-1.5 1.25 -1.5 1.25 0 0 Z " fill="#C150B1" transform="translate(321,305)"/>
<path d="M0 0 C0.66 0 1.32 0 2 0 C2.5745952 3.73486879 3 7.21293268 3 11 C3.66 11.66 4.32 12.32 5 13 C5.125 15.625 5.125 15.625 5 18 C4.01 18.33 3.02 18.66 2 19 C0.82706111 12.6221448 -0.29530838 6.49678438 0 0 Z " fill="#BC62CB" transform="translate(274,344)"/>
<path d="M0 0 C-1.33488128 3.59391114 -2.96022723 6.75490696 -5 10 C-5.33 9.34 -5.66 8.68 -6 8 C-6.99 8 -7.98 8 -9 8 C-8.66410006 4.86493389 -7.97334828 3.974751 -5.625 1.75 C-3 0 -3 0 0 0 Z " fill="#3A1E7B" transform="translate(295,272)"/>
<path d="M0 0 C5.89126992 1.55033419 11.02060001 4.54911639 16 8 C16.33 8.66 16.66 9.32 17 10 C16.01 10 15.02 10 14 10 C14 9.34 14 8.68 14 8 C13.01 8.33 12.02 8.66 11 9 C8.8125 7.6875 8.8125 7.6875 7 6 C7 5.34 7 4.68 7 4 C6.01 4.33 5.02 4.66 4 5 C3.67 4.01 3.34 3.02 3 2 C2.01 2.33 1.02 2.66 0 3 C0 2.01 0 1.02 0 0 Z " fill="#B475C2" transform="translate(212,139)"/>
<path d="M0 0 C0.33 0.66 0.66 1.32 1 2 C1.66 2 2.32 2 3 2 C3.70180531 3.4096347 4.38593958 4.82807641 5.0625 6.25 C5.44535156 7.03890625 5.82820313 7.8278125 6.22265625 8.640625 C7.08564091 11.25993522 6.93045933 12.44855176 6 15 C5.67 14.01 5.34 13.02 5 12 C4.01 12.33 3.02 12.66 2 13 C2.33 10.36 2.66 7.72 3 5 C1.35 4.67 -0.3 4.34 -2 4 C-1.34 2.68 -0.68 1.36 0 0 Z " fill="#6D6C7D" transform="translate(354,319)"/>
<path d="M0 0 C1.32 0 2.64 0 4 0 C2.50923566 3.2826932 0.61379679 5.93077441 -1.625 8.75 C-2.57246094 9.94882813 -2.57246094 9.94882813 -3.5390625 11.171875 C-4.02117187 11.77515625 -4.50328125 12.3784375 -5 13 C-5.33 12.01 -5.66 11.02 -6 10 C-5.34 10 -4.68 10 -4 10 C-4 8.68 -4 7.36 -4 6 C-3.34 6 -2.68 6 -2 6 C-2 4.68 -2 3.36 -2 2 C-1.34 2 -0.68 2 0 2 C0 1.34 0 0.68 0 0 Z " fill="#F4DBAD" transform="translate(460,184)"/>
<path d="M0 0 C0.66 0.33 1.32 0.66 2 1 C1.28972656 1.69867188 0.57945312 2.39734375 -0.15234375 3.1171875 C-1.07144531 4.02726563 -1.99054688 4.93734375 -2.9375 5.875 C-4.31228516 7.23238281 -4.31228516 7.23238281 -5.71484375 8.6171875 C-8.01187627 10.77682255 -8.01187627 10.77682255 -9 13 C-9.99 13 -10.98 13 -12 13 C-10.83242263 9.67689517 -9.85051143 7.16638868 -7 5 C-6.01 5 -5.02 5 -4 5 C-4 4.01 -4 3.02 -4 2 C-2.125 0.9375 -2.125 0.9375 0 0 Z " fill="#EDAE7D" transform="translate(402,199)"/>
<path d="M0 0 C0.90105469 0.01804687 1.80210937 0.03609375 2.73046875 0.0546875 C3.41753906 0.07789062 4.10460937 0.10109375 4.8125 0.125 C4.4825 1.445 4.1525 2.765 3.8125 4.125 C3.4825 3.465 3.1525 2.805 2.8125 2.125 C0.8325 2.125 -1.1475 2.125 -3.1875 2.125 C-3.1875 2.785 -3.1875 3.445 -3.1875 4.125 C-4.5075 4.125 -5.8275 4.125 -7.1875 4.125 C-7.1875 4.785 -7.1875 5.445 -7.1875 6.125 C-7.8475 5.795 -8.5075 5.465 -9.1875 5.125 C-7.51320877 0.1021263 -4.80985821 -0.12493138 0 0 Z " fill="#FBE3A2" transform="translate(503.1875,127.875)"/>
<path d="M0 0 C0 1.32 0 2.64 0 4 C-0.33 3.34 -0.66 2.68 -1 2 C-7.6 2 -14.2 2 -21 2 C-21 1.67 -21 1.34 -21 1 C-13.97195301 0.14626761 -7.07721931 -0.12109311 0 0 Z " fill="#F7F9EE" transform="translate(509,126)"/>
<path d="M0 0 C3.59634744 3.49359465 6.83451967 7.11098131 10 11 C9.34 12.32 8.68 13.64 8 15 C7.938125 14.443125 7.87625 13.88625 7.8125 13.3125 C7.10456883 10.74995088 7.10456883 10.74995088 4.5625 8.625 C1.8052641 5.80051445 0.96594229 3.77595622 0 0 Z " fill="#422480" transform="translate(303,235)"/>
<path d="M0 0 C0.66 0 1.32 0 2 0 C2 1.65 2 3.3 2 5 C0.68 5.33 -0.64 5.66 -2 6 C-2 6.66 -2 7.32 -2 8 C-2.66 8 -3.32 8 -4 8 C-4 8.66 -4 9.32 -4 10 C-4.66 10 -5.32 10 -6 10 C-6 8.68 -6 7.36 -6 6 C-5.34 6 -4.68 6 -4 6 C-4 5.34 -4 4.68 -4 4 C-3.34 4 -2.68 4 -2 4 C-2 3.34 -2 2.68 -2 2 C-1.34 2 -0.68 2 0 2 C0 1.34 0 0.68 0 0 Z " fill="#FCD553" transform="translate(482,156)"/>
<path d="M0 0 C0.66 0 1.32 0 2 0 C1.43628586 3.26954202 0.50037734 4.82575883 -2 7 C-2.33 6.01 -2.66 5.02 -3 4 C-2.67 3.34 -2.34 2.68 -2 2 C-1.34 2 -0.68 2 0 2 C0 1.34 0 0.68 0 0 Z M-4 7 C-4 10 -4 10 -6.5 12.6875 C-7.325 13.450625 -8.15 14.21375 -9 15 C-9.66 14.67 -10.32 14.34 -11 14 C-8.78071806 11.09197539 -7.07030857 9.04687238 -4 7 Z " fill="#E29885" transform="translate(378,222)"/>
<path d="M0 0 C0.66 0 1.32 0 2 0 C2 1.32 2 2.64 2 4 C1.34 4 0.68 4 0 4 C-0.66 5.98 -1.32 7.96 -2 10 C-2.66 10 -3.32 10 -4 10 C-4 11.32 -4 12.64 -4 14 C-4.66 14 -5.32 14 -6 14 C-5.33501617 9.61110675 -3.81242323 6.0188515 -2 2 C-1.34 2 -0.68 2 0 2 C0 1.34 0 0.68 0 0 Z " fill="#A61CC7" transform="translate(322,366)"/>
<path d="M0 0 C0.66 0.33 1.32 0.66 2 1 C1.0919838 2.13199353 0.17316174 3.25532363 -0.75 4.375 C-1.26046875 5.00148437 -1.7709375 5.62796875 -2.296875 6.2734375 C-4.08199481 8.08312318 -5.67949644 9.00117455 -8 10 C-8 8.68 -8 7.36 -8 6 C-7.01 5.34 -6.02 4.68 -5 4 C-4.34 3.01 -3.68 2.02 -3 1 C-2.01 0.67 -1.02 0.34 0 0 Z " fill="#EDB48B" transform="translate(388,212)"/>
<path d="M0 0 C1.98 0.66 3.96 1.32 6 2 C6.061875 2.70125 6.12375 3.4025 6.1875 4.125 C7.29201202 8.0332733 9.28230992 10.00357248 12 13 C11.67 13.66 11.34 14.32 11 15 C0 2.54775281 0 2.54775281 0 0 Z " fill="#C2ADD3" transform="translate(157,176)"/>
<path d="M0 0 C4.62 0 9.24 0 14 0 C12.515 1.98 12.515 1.98 11 4 C10.34 4 9.68 4 9 4 C9 3.34 9 2.68 9 2 C6.36 2.33 3.72 2.66 1 3 C0.67 2.01 0.34 1.02 0 0 Z " fill="#9615A7" transform="translate(119,128)"/>
<path d="M0 0 C0.33 0 0.66 0 1 0 C0.51679152 6.2054142 -0.33318124 11.99945246 -2 18 C-3.17904475 13.75169592 -4.0326419 9.0652838 -2 5 C-1.34 5 -0.68 5 0 5 C0 3.35 0 1.7 0 0 Z " fill="#0E1C5C" transform="translate(366,458)"/>
<path d="M0 0 C1.98 0 3.96 0 6 0 C4.55746343 3.36591866 2.66735273 5.51047079 0 8 C0 5.36 0 2.72 0 0 Z " fill="#FBE298" transform="translate(484,152)"/>
<path d="M0 0 C2.375 0.25 2.375 0.25 5 1 C7.07849003 3.95364373 7.91036302 7.57542663 9 11 C5.74251349 7.83299923 2.72824638 4.63766184 0 1 C0 0.67 0 0.34 0 0 Z " fill="#B686C7" transform="translate(123,135)"/>
<path d="M0 0 C-0.33 0.66 -0.66 1.32 -1 2 C-3.3984375 2.34375 -3.3984375 2.34375 -6.375 2.5 C-10.25229715 2.70460671 -11.69213984 2.79475989 -15 5 C-15.66 4.34 -16.32 3.68 -17 3 C-16.34 3 -15.68 3 -15 3 C-15 2.34 -15 1.68 -15 1 C-9.91913204 0.15318867 -5.15171623 -0.09038099 0 0 Z " fill="#F9ECC5" transform="translate(445,130)"/>
<path d="M0 0 C2.475 0.495 2.475 0.495 5 1 C4.67 1.99 4.34 2.98 4 4 C4.66 4 5.32 4 6 4 C6.59732819 6.76264289 7 9.16032769 7 12 C2.96950775 8.37255698 1.68106821 5.04320462 0 0 Z " fill="#8762A9" transform="translate(166,185)"/>
<path d="M0 0 C0.33 0.66 0.66 1.32 1 2 C1.66 2.33 2.32 2.66 3 3 C2.01 5.31 1.02 7.62 0 10 C0.66 10.33 1.32 10.66 2 11 C1.01 11.99 0.02 12.98 -1 14 C-1.02694851 12.04174127 -1.04637218 10.08337774 -1.0625 8.125 C-1.07410156 7.03445313 -1.08570313 5.94390625 -1.09765625 4.8203125 C-1 2 -1 2 0 0 Z " fill="#A646BA" transform="translate(274,326)"/>
<path d="M0 0 C-1.44424635 3.23861303 -3.25772247 5.61969163 -5.625 8.25 C-6.25664062 8.95640625 -6.88828125 9.6628125 -7.5390625 10.390625 C-8.02117187 10.92171875 -8.50328125 11.4528125 -9 12 C-9.33 10.68 -9.66 9.36 -10 8 C-9.34 8 -8.68 8 -8 8 C-8 7.34 -8 6.68 -8 6 C-7.34 6 -6.68 6 -6 6 C-6 5.34 -6 4.68 -6 4 C-2.47058824 0 -2.47058824 0 0 0 Z " fill="#F1D6BC" transform="translate(450,202)"/>
<path d="M0 0 C1.485 0.99 1.485 0.99 3 2 C3.66 1.67 4.32 1.34 5 1 C7.19097652 4.3340947 8.43454163 7.04179141 9 11 C7.33333333 9.33333333 5.66666667 7.66666667 4 6 C3.236875 5.278125 2.47375 4.55625 1.6875 3.8125 C0 2 0 2 0 0 Z " fill="#AA96C9" transform="translate(174,197)"/>
<path d="M0 0 C1.65 0 3.3 0 5 0 C4.74438677 2.3431213 4.40729228 4.67843403 4 7 C3.01 7.495 3.01 7.495 2 8 C0.4375 6.25 0.4375 6.25 -1 4 C-0.6875 1.75 -0.6875 1.75 0 0 Z " fill="#531D88" transform="translate(163,178)"/>
<path d="M0 0 C7.42857143 -0.14285714 7.42857143 -0.14285714 11 1 C11 1.66 11 2.32 11 3 C9.54176788 3.0270043 8.08339325 3.04639787 6.625 3.0625 C5.81289062 3.07410156 5.00078125 3.08570313 4.1640625 3.09765625 C2 3 2 3 0 2 C0 1.34 0 0.68 0 0 Z " fill="#911AA4" transform="translate(178,131)"/>
<path d="M0 0 C0.33 0 0.66 0 1 0 C1.3636198 4.24223102 0.5393228 6.58168085 -2 10 C-2.66 10 -3.32 10 -4 10 C-4.33 11.32 -4.66 12.64 -5 14 C-5 12.35 -5 10.7 -5 9 C-4.34 9 -3.68 9 -3 9 C-3 7.68 -3 6.36 -3 5 C-2.34 5 -1.68 5 -1 5 C-1.33 4.01 -1.66 3.02 -2 2 C-1.34 1.34 -0.68 0.68 0 0 Z " fill="#BB42B8" transform="translate(311,325)"/>
<path d="M0 0 C0.33 0.66 0.66 1.32 1 2 C1.66 2.33 2.32 2.66 3 3 C2.34 4.65 1.68 6.3 1 8 C0.34 8 -0.32 8 -1 8 C-1.33 8.66 -1.66 9.32 -2 10 C-2.25 3.375 -2.25 3.375 0 0 Z " fill="#1E1544" transform="translate(285,450)"/>
<path d="M0 0 C0.66 0 1.32 0 2 0 C0.33248852 3.94139078 -2.22710649 6.7892812 -5 10 C-5.33 8.68 -5.66 7.36 -6 6 C-5.34 6 -4.68 6 -4 6 C-4 5.34 -4 4.68 -4 4 C-3.34 4 -2.68 4 -2 4 C-2 3.34 -2 2.68 -2 2 C-1.34 2 -0.68 2 0 2 C0 1.34 0 0.68 0 0 Z " fill="#F7EAC4" transform="translate(480,162)"/>
<path d="M0 0 C-0.625 1.875 -0.625 1.875 -2 4 C-5.125 5.25 -5.125 5.25 -8 6 C-8 5.34 -8 4.68 -8 4 C-7.34 4 -6.68 4 -6 4 C-6 3.01 -6 2.02 -6 1 C-4 0 -4 0 0 0 Z " fill="#FCCF53" transform="translate(456,158)"/>
<path d="M0 0 C0.33 0.99 0.66 1.98 1 3 C-0.109375 4.7890625 -0.109375 4.7890625 -1.75 6.625 C-2.28109375 7.23601562 -2.8121875 7.84703125 -3.359375 8.4765625 C-5 10 -5 10 -8 11 C-8 10.34 -8 9.68 -8 9 C-7.34 9 -6.68 9 -6 9 C-5.34 7.35 -4.68 5.7 -4 4 C-3.34 4 -2.68 4 -2 4 C-2 3.34 -2 2.68 -2 2 C-1.34 2 -0.68 2 0 2 C0 1.34 0 0.68 0 0 Z " fill="#D38385" transform="translate(367,237)"/>
<path d="M0 0 C0.33 1.32 0.66 2.64 1 4 C-0.8125 6.25 -0.8125 6.25 -3 8 C-3.66 8 -4.32 8 -5 8 C-5 8.66 -5 9.32 -5 10 C-5.66 9.67 -6.32 9.34 -7 9 C-4.69 6.03 -2.38 3.06 0 0 Z " fill="#FAF1E1" transform="translate(377,162)"/>
<path d="M0 0 C0.66 0.33 1.32 0.66 2 1 C1.67 3.31 1.34 5.62 1 8 C-0.32 8 -1.64 8 -3 8 C-3 7.34 -3 6.68 -3 6 C-2.34 6 -1.68 6 -1 6 C-0.67 4.02 -0.34 2.04 0 0 Z " fill="#130D25" transform="translate(293,428)"/>
<path d="M0 0 C0.66 0 1.32 0 2 0 C2 2.31 2 4.62 2 7 C0.68 7 -0.64 7 -2 7 C-1.125 1.125 -1.125 1.125 0 0 Z " fill="#120B24" transform="translate(298,417)"/>
<path d="M0 0 C1.09991843 3.29975529 1.35996895 5.54429807 1 9 C-1.01953125 10.6875 -1.01953125 10.6875 -3 12 C-2.69106068 10.3743193 -2.3777305 8.74947252 -2.0625 7.125 C-1.88847656 6.22007812 -1.71445312 5.31515625 -1.53515625 4.3828125 C-1 2 -1 2 0 0 Z " fill="#B652AD" transform="translate(279,305)"/>
<path d="M0 0 C1 3 1 3 0.0625 5.1875 C-0.4634375 6.0846875 -0.4634375 6.0846875 -1 7 C-1.66 7 -2.32 7 -3 7 C-3 7.66 -3 8.32 -3 9 C-3.66 9 -4.32 9 -5 9 C-5 7.68 -5 6.36 -5 5 C-4.34 5 -3.68 5 -3 5 C-3 4.34 -3 3.68 -3 3 C-2.34 3 -1.68 3 -1 3 C-0.67 2.01 -0.34 1.02 0 0 Z " fill="#F6D993" transform="translate(375,167)"/>
<path d="M0 0 C0.66 0.33 1.32 0.66 2 1 C2.28571429 8.42857143 2.28571429 8.42857143 0 12 C-0.92844389 7.66726186 -0.92844389 4.33273814 0 0 Z " fill="#23286F" transform="translate(282,459)"/>
<path d="M0 0 C0.99 0 1.98 0 3 0 C2.67 1.32 2.34 2.64 2 4 C1.34 4 0.68 4 0 4 C-0.33 5.32 -0.66 6.64 -1 8 C-1.33 8 -1.66 8 -2 8 C-2 6.02 -2 4.04 -2 2 C-1.34 2 -0.68 2 0 2 C0 1.34 0 0.68 0 0 Z " fill="#A02BB7" transform="translate(330,352)"/>
<path d="M0 0 C3.33523252 1.38009621 5.18607951 2.84950652 7 6 C6.67 6.99 6.34 7.98 6 9 C4.99406757 7.8803014 3.9954151 6.7540588 3 5.625 C2.443125 4.99851563 1.88625 4.37203125 1.3125 3.7265625 C0 2 0 2 0 0 Z " fill="#4A2174" transform="translate(171,191)"/>
<path d="M0 0 C0.66 0 1.32 0 2 0 C1.50168276 3.68754757 0.89932357 5.60490662 -2 8 C-2.125 5.125 -2.125 5.125 -2 2 C-1.34 1.34 -0.68 0.68 0 0 Z " fill="#1C246E" transform="translate(282,292)"/>
<path d="M0 0 C0.99 0.99 1.98 1.98 3 3 C1.71034824 4.37562854 0.37310707 5.70766393 -1 7 C-1.66 7 -2.32 7 -3 7 C-1.125 1.125 -1.125 1.125 0 0 Z " fill="#CB77A9" transform="translate(293,276)"/>
<path d="M0 0 C1.98 0 3.96 0 6 0 C6 0.66 6 1.32 6 2 C5.34 2 4.68 2 4 2 C4 2.66 4 3.32 4 4 C2.68 4 1.36 4 0 4 C0 2.68 0 1.36 0 0 Z " fill="#FCD354" transform="translate(500,130)"/>
<path d="M0 0 C0.6875 1.75 0.6875 1.75 1 4 C-0.4375 6.25 -0.4375 6.25 -2 8 C-2.33 6.02 -2.66 4.04 -3 2 C-2.01 1.34 -1.02 0.68 0 0 Z " fill="#A70FD6" transform="translate(309,390)"/>
<path d="M0 0 C2.5 1.0625 2.5 1.0625 5 3 C5.3125 6.6875 5.3125 6.6875 5 10 C3 7 3 7 3 5 C2.34 5 1.68 5 1 5 C0.67 3.35 0.34 1.7 0 0 Z " fill="#495B92" transform="translate(267,333)"/>
<path d="M0 0 C0.33 0.66 0.66 1.32 1 2 C-0.65 4.31 -2.3 6.62 -4 9 C-4.33 8.01 -4.66 7.02 -5 6 C-4.34 6 -3.68 6 -3 6 C-3 4.35 -3 2.7 -3 1 C-2.01 0.67 -1.02 0.34 0 0 Z " fill="#481E7B" transform="translate(307,252)"/>
<path d="M0 0 C0.66 0 1.32 0 2 0 C1.50168276 3.68754757 0.89932357 5.60490662 -2 8 C-2 6.02 -2 4.04 -2 2 C-1.34 2 -0.68 2 0 2 C0 1.34 0 0.68 0 0 Z " fill="#EDB48C" transform="translate(436,214)"/>
<path d="M0 0 C0.99 0 1.98 0 3 0 C3 2 3 2 1.1875 4.125 C-1 6 -1 6 -4 6 C-3.67 5.01 -3.34 4.02 -3 3 C-2.34 3 -1.68 3 -1 3 C-0.67 2.01 -0.34 1.02 0 0 Z " fill="#F8CF8B" transform="translate(423,178)"/>
<path d="M0 0 C0.99 0.33 1.98 0.66 3 1 C3.66 0.67 4.32 0.34 5 0 C5.33 2.31 5.66 4.62 6 7 C3.95880212 5.38405168 1.95927063 3.7143618 0 2 C0 1.34 0 0.68 0 0 Z " fill="#A481BB" transform="translate(151,169)"/>
<path d="M0 0 C0.66 0 1.32 0 2 0 C3.125 6.75 3.125 6.75 2 9 C0 7 0 7 -0.125 3.375 C-0.08375 2.26125 -0.0425 1.1475 0 0 Z " fill="#BF2FD0" transform="translate(274,344)"/>
<path d="M0 0 C1.32 0 2.64 0 4 0 C2.84826645 2.46800047 1.95216435 4.04783565 0 6 C0 5.34 0 4.68 0 4 C-0.66 4 -1.32 4 -2 4 C-2 3.34 -2 2.68 -2 2 C-1.34 2 -0.68 2 0 2 C0 1.34 0 0.68 0 0 Z " fill="#F8D489" transform="translate(460,184)"/>
<path d="M0 0 C1.32 0 2.64 0 4 0 C4 0.66 4 1.32 4 2 C3.34 2 2.68 2 2 2 C2 2.66 2 3.32 2 4 C1.34 4 0.68 4 0 4 C-0.33 4.66 -0.66 5.32 -1 6 C-1.33 4.68 -1.66 3.36 -2 2 C-1.34 2 -0.68 2 0 2 C0 1.34 0 0.68 0 0 Z " fill="#FDC74B" transform="translate(468,172)"/>
<path d="M0 0 C0.66 0 1.32 0 2 0 C2 0.66 2 1.32 2 2 C2.66 2 3.32 2 4 2 C4.66 3.65 5.32 5.3 6 7 C3.53199953 5.84826645 1.95216435 4.95216435 0 3 C0 2.01 0 1.02 0 0 Z " fill="#5E1D8D" transform="translate(146,160)"/>
<path d="M0 0 C0.66 0 1.32 0 2 0 C2 1.32 2 2.64 2 4 C1.34 4 0.68 4 0 4 C-0.33 5.32 -0.66 6.64 -1 8 C-1.93065133 5.39417629 -2.14917407 4.35801776 -1.0625 1.75 C-0.711875 1.1725 -0.36125 0.595 0 0 Z " fill="#0A0C1B" transform="translate(306,400)"/>
<path d="M0 0 C0.33 0.99 0.66 1.98 1 3 C-0.9375 6.1875 -0.9375 6.1875 -3 9 C-3.66 8.67 -4.32 8.34 -5 8 C-3.35 5.36 -1.7 2.72 0 0 Z " fill="#C682A5" transform="translate(301,263)"/>
<path d="M0 0 C1.32 0 2.64 0 4 0 C3.34 1.32 2.68 2.64 2 4 C1.01 4 0.02 4 -1 4 C-0.67 2.68 -0.34 1.36 0 0 Z " fill="#291C74" transform="translate(228,260)"/>
<path d="M0 0 C0.99 0.33 1.98 0.66 3 1 C-1.75 5.875 -1.75 5.875 -4 7 C-3.6875 4.625 -3.6875 4.625 -3 2 C-2.01 1.34 -1.02 0.68 0 0 Z " fill="#F9DEA8" transform="translate(382,158)"/>
<path d="M0 0 C1.32 0 2.64 0 4 0 C4 0.66 4 1.32 4 2 C1.09451118 4.04169485 -0.40142046 5 -4 5 C-2.25 2.5 -2.25 2.5 0 0 Z " fill="#F8E1AF" transform="translate(391,148)"/>
<path d="M0 0 C5.75 1.75 5.75 1.75 8 4 C6.68 4.33 5.36 4.66 4 5 C3.67 4.01 3.34 3.02 3 2 C2.01 2.33 1.02 2.66 0 3 C0 2.01 0 1.02 0 0 Z " fill="#BE7BD1" transform="translate(212,139)"/>
</svg>
